<svg id="Layer_1" data-name="Layer 1" xmlns="http://www.w3.org/2000/svg" xmlns:xlink="http://www.w3.org/1999/xlink" viewBox="0 0 3759.16 1182.32"><defs><style>.cls-1{fill:none;clip-rule:evenodd;}.cls-2{clip-path:url(#clip-path);}.cls-3{fill:url(#linear-gradient);}.cls-4,.cls-5{font-size:364.19px;fill:#fff;}.cls-4,.cls-6{font-family:Poppins-Light, Poppins;font-weight:300;}.cls-4{letter-spacing:0.11em;}.cls-5{font-family:Poppins-SemiBold, Poppins;font-weight:600;letter-spacing:-0.02em;}.cls-6{font-size:200px;fill:#caa987;letter-spacing:-0.02em;}</style><clipPath id="clip-path"><path class="cls-1" d="M424.9,528.11q180.21,123.82,306.72,309.2c10.83-13.94,10.29-15.76,11.29-26.21-66-142.73-151.48-279.63-263.58-384.6q-58.8,13-147.74,43.64,48.33,27.06,93.31,58M789.54,769.88C745.72,626,682.87,476.55,590.84,372.52,693.46,339.11,841.78,313,941.27,295.36q2.75-4.17,5.44-8.34c7.73-11.95,15.42-24.19,22.64-36.69-121.21,18.74-346.09,50.42-554.68,93.37q199.4,144,339.78,438.65a40.81,40.81,0,0,1,29.38-12.47Zm2.84,82.72H771.25c-6.35,0-12,4.47-12.68,10.78l-9.3,80.71a13,13,0,0,0,2.89,10.39A12.43,12.43,0,0,0,762,959H932.12a12.46,12.46,0,0,0,9.79-4.52,13.1,13.1,0,0,0,2.89-10.39l-9.3-80.71c-.73-6.31-6.33-10.78-12.69-10.78H901.69a5.33,5.33,0,0,1-5.31-5.31v-11a5.33,5.33,0,0,1,5.31-5.32h8.54a5.31,5.31,0,0,0,5.31-5.3V810.81a5.32,5.32,0,0,0-5.31-5.31h-41.3l10-21.34c50,2.38,93.74-49.44,124.25-126.55q-19.85,25-53.49,41c71.71-51.16,86.74-139,94.82-220.89q-9.06,35.76-38.82,59.41c45.41-47.65,45.49-136.24,39.78-199a300.13,300.13,0,0,1-17.21,40.16q19.61-47.61,3.67-123.45-3.95-16.12-8.88-31.52C999.48,277.47,958,333.88,917.9,394a107.85,107.85,0,0,0-17.23,72.43q-5.88-20.34-5.39-37.76C876,459.08,858,490.49,843.41,523q-16.5,38.38-1.78,70.55-10.47-14.34-15-27.5Q822,580.37,818.4,595c-4.82,19.93-7.48,37.07-6,52,2.3,23,14.63,40.55,34,53q-18.69-10-29.48-21.76c8.88,33.71,28.26,56,37,83L951,499.4l-103,332,3.32-25.9H783.83a5.33,5.33,0,0,0-5.31,5.31v14.86a5.32,5.32,0,0,0,5.31,5.3h8.55a5.32,5.32,0,0,1,5.3,5.32v11A5.32,5.32,0,0,1,792.38,852.6ZM247.74,607.31Q526,682.85,721.3,875.71l1.28-11.14C636.12,734.08,528.46,624.2,397.89,537.26Q311.94,567.65,247.74,607.31Z"/></clipPath><linearGradient id="linear-gradient" x1="649.47" y1="956.08" x2="649.47" y2="180.42" gradientUnits="userSpaceOnUse"><stop offset="0" stop-color="#b88d6b"/><stop offset="1" stop-color="#d6b592"/></linearGradient></defs><g class="cls-2"><rect class="cls-3" x="247.74" y="223.31" width="803.47" height="735.69"/></g><text class="cls-4" transform="translate(1120.52 651.87)">THE BOOK</text><text class="cls-5" transform="translate(1120.52 955.61)">PUBLISHING</text><text class="cls-6" transform="translate(3152.84 957.61)">.ORG</text></svg>