<svg id="Layer_1" data-name="Layer 1" xmlns="http://www.w3.org/2000/svg" xmlns:xlink="http://www.w3.org/1999/xlink" viewBox="0 0 3759.16 1182.32"><defs><style>.cls-1{fill:none;clip-rule:evenodd;}.cls-2{clip-path:url(#clip-path);}.cls-3{fill:url(#linear-gradient);}.cls-4,.cls-5{font-size:364.19px;fill:#212e3e;}.cls-4,.cls-6{font-family:Poppins-Light, Poppins;font-weight:300;}.cls-4{letter-spacing:0.11em;}.cls-5{font-family:Poppins-SemiBold, Poppins;font-weight:600;letter-spacing:-0.02em;}.cls-6{font-size:200px;fill:#caa987;letter-spacing:-0.02em;}</style><clipPath id="clip-path"><path class="cls-1" d="M339.81,479.82Q520,603.65,646.53,789c10.83-13.94,10.29-15.76,11.29-26.21-66-142.73-151.48-279.64-263.58-384.6q-58.8,13.05-147.74,43.64,48.33,27.06,93.31,58M704.45,721.59c-43.82-143.87-106.67-293.33-198.7-397.36,102.62-33.41,250.94-59.57,350.43-77.16q2.75-4.17,5.44-8.35c7.73-11.94,15.42-24.18,22.64-36.68-121.21,18.74-346.1,50.42-554.69,93.37Q529,439.4,669.36,734.06a40.81,40.81,0,0,1,29.38-12.47Zm2.83,82.72H686.16c-6.35,0-11.95,4.47-12.68,10.78l-9.31,80.71a13.11,13.11,0,0,0,2.89,10.39,12.46,12.46,0,0,0,9.79,4.52H847a12.46,12.46,0,0,0,9.79-4.52,13.07,13.07,0,0,0,2.88-10.39l-9.3-80.71c-.73-6.31-6.33-10.78-12.68-10.78H816.6a5.32,5.32,0,0,1-5.31-5.32V788a5.32,5.32,0,0,1,5.31-5.32h8.54a5.32,5.32,0,0,0,5.31-5.31V762.52a5.32,5.32,0,0,0-5.31-5.31h-41.3l10-21.34c50,2.38,93.74-49.44,124.25-126.55q-19.85,25-53.49,41c71.7-51.16,86.74-139,94.82-220.89q-9.06,35.76-38.82,59.41c45.41-47.65,45.49-136.25,39.78-199A300,300,0,0,1,943.2,330q19.6-47.6,3.66-123.44Q942.93,190.42,938,175c-23.6,54.16-65,110.57-105.18,170.66a107.85,107.85,0,0,0-17.23,72.43q-5.88-20.34-5.39-37.76c-19.27,30.44-37.33,61.85-51.87,94.4q-16.5,38.38-1.78,70.55-10.47-14.34-15-27.51-4.69,14.3-8.25,28.87c-4.82,19.93-7.48,37.07-6,52,2.3,23,14.63,40.55,34,53q-18.69-10-29.48-21.76c8.88,33.71,28.26,56,37,83L865.94,451.1l-103,332,3.32-25.9H698.74a5.32,5.32,0,0,0-5.31,5.31v14.85a5.32,5.32,0,0,0,5.31,5.31h8.54a5.33,5.33,0,0,1,5.31,5.32v11A5.33,5.33,0,0,1,707.28,804.31ZM162.65,559q278.28,75.54,473.56,268.4l1.28-11.15C551,685.79,443.37,575.91,312.8,489Q226.85,519.36,162.65,559Z"/></clipPath><linearGradient id="linear-gradient" x1="564.38" y1="907.79" x2="564.38" y2="132.13" gradientUnits="userSpaceOnUse"><stop offset="0" stop-color="#b88d6b"/><stop offset="1" stop-color="#d6b592"/></linearGradient></defs><g class="cls-2"><rect class="cls-3" x="162.65" y="175.02" width="803.47" height="735.69"/></g><text class="cls-4" transform="translate(1035.43 603.58)">THE BOOK</text><text class="cls-5" transform="translate(1035.43 907.32)">PUBLISHING</text><text class="cls-6" transform="translate(3067.75 909.32)">.ORG</text></svg>